<svg width="205" height="42" viewBox="0 0 205 42" fill="none" xmlns="http://www.w3.org/2000/svg">
<path d="M32.3846 13.502H29.8484L29.8347 12.251H32.0496C32.4233 12.251 32.74 12.1963 32.9998 12.0869C33.2641 11.973 33.4646 11.8112 33.6013 11.6016C33.7381 11.3874 33.8064 11.1299 33.8064 10.8291C33.8064 10.4964 33.7426 10.2253 33.615 10.0156C33.4874 9.80599 33.2915 9.65332 33.0271 9.55762C32.7674 9.46191 32.4347 9.41406 32.0291 9.41406H30.368V18H28.6521V8.04688H32.0291C32.576 8.04688 33.0636 8.09928 33.492 8.2041C33.9249 8.30892 34.2918 8.47298 34.5926 8.69629C34.8979 8.91504 35.128 9.19303 35.283 9.53027C35.4425 9.86751 35.5222 10.2686 35.5222 10.7334C35.5222 11.1436 35.4243 11.5195 35.2283 11.8613C35.0323 12.1986 34.743 12.4743 34.3601 12.6885C33.9773 12.9027 33.5011 13.0303 32.9314 13.0713L32.3846 13.502ZM32.3094 18H29.3084L30.0808 16.6396H32.3094C32.6967 16.6396 33.0203 16.5758 33.2801 16.4482C33.5398 16.3161 33.7335 16.1361 33.8611 15.9082C33.9933 15.6758 34.0594 15.4046 34.0594 15.0947C34.0594 14.7712 34.0024 14.4909 33.8885 14.2539C33.7745 14.0124 33.5945 13.8278 33.3484 13.7002C33.1023 13.568 32.781 13.502 32.3846 13.502H30.4568L30.4705 12.251H32.9793L33.3689 12.7227C33.9158 12.7409 34.3647 12.8617 34.7156 13.085C35.0711 13.3083 35.3354 13.5977 35.5086 13.9531C35.6818 14.3086 35.7683 14.6914 35.7683 15.1016C35.7683 15.735 35.6293 16.266 35.3513 16.6943C35.0779 17.1227 34.6837 17.4486 34.1687 17.6719C33.6538 17.8906 33.034 18 32.3094 18ZM40.5945 18.1367C40.0476 18.1367 39.5532 18.0479 39.1111 17.8701C38.6736 17.6878 38.2999 17.4349 37.99 17.1113C37.6847 16.7878 37.45 16.4072 37.2859 15.9697C37.1219 15.5322 37.0398 15.0605 37.0398 14.5547V14.2812C37.0398 13.7025 37.1241 13.1784 37.2928 12.709C37.4614 12.2396 37.6961 11.8385 37.9969 11.5059C38.2976 11.1686 38.6531 10.9111 39.0633 10.7334C39.4734 10.5557 39.9178 10.4668 40.3963 10.4668C40.9249 10.4668 41.3875 10.5557 41.784 10.7334C42.1805 10.9111 42.5086 11.1618 42.7683 11.4854C43.0327 11.8044 43.2286 12.1849 43.3562 12.627C43.4884 13.069 43.5545 13.5566 43.5545 14.0898V14.7939H37.8396V13.6113H41.9275V13.4814C41.9184 13.1852 41.8592 12.9072 41.7498 12.6475C41.645 12.3877 41.4832 12.1781 41.2644 12.0186C41.0457 11.859 40.754 11.7793 40.3894 11.7793C40.116 11.7793 39.8722 11.8385 39.658 11.957C39.4484 12.071 39.2729 12.2373 39.1316 12.4561C38.9903 12.6748 38.881 12.9391 38.8035 13.249C38.7306 13.5544 38.6941 13.8984 38.6941 14.2812V14.5547C38.6941 14.8783 38.7374 15.179 38.824 15.457C38.9152 15.7305 39.0473 15.9697 39.2205 16.1748C39.3937 16.3799 39.6033 16.5417 39.8494 16.6602C40.0955 16.7741 40.3758 16.8311 40.6902 16.8311C41.0867 16.8311 41.4399 16.7513 41.7498 16.5918C42.0597 16.4323 42.3286 16.2067 42.5564 15.915L43.4246 16.7559C43.2651 16.9883 43.0577 17.2116 42.8025 17.4258C42.5473 17.6354 42.2351 17.8063 41.866 17.9385C41.5014 18.0706 41.0776 18.1367 40.5945 18.1367ZM46.4939 12.0254V20.8438H44.8465V10.6035H46.364L46.4939 12.0254ZM51.3133 14.2334V14.377C51.3133 14.9147 51.2495 15.4137 51.1219 15.874C50.9988 16.3298 50.8142 16.7285 50.5681 17.0703C50.3266 17.4076 50.0281 17.6696 49.6726 17.8564C49.3172 18.0433 48.907 18.1367 48.4422 18.1367C47.9819 18.1367 47.5786 18.0524 47.2322 17.8838C46.8904 17.7106 46.601 17.4668 46.364 17.1523C46.1271 16.8379 45.9357 16.4688 45.7898 16.0449C45.6485 15.6165 45.5483 15.1471 45.489 14.6367V14.083C45.5483 13.5407 45.6485 13.0485 45.7898 12.6064C45.9357 12.1644 46.1271 11.7839 46.364 11.4648C46.601 11.1458 46.8904 10.8997 47.2322 10.7266C47.574 10.5534 47.9728 10.4668 48.4285 10.4668C48.8933 10.4668 49.3058 10.5579 49.6658 10.7402C50.0258 10.918 50.3289 11.1732 50.575 11.5059C50.8211 11.834 51.0056 12.2305 51.1287 12.6953C51.2517 13.1556 51.3133 13.6683 51.3133 14.2334ZM49.6658 14.377V14.2334C49.6658 13.8916 49.6339 13.5749 49.5701 13.2832C49.5063 12.987 49.406 12.7272 49.2693 12.5039C49.1326 12.2806 48.9571 12.1074 48.743 11.9844C48.5333 11.8568 48.2804 11.793 47.9842 11.793C47.6925 11.793 47.4418 11.8431 47.2322 11.9434C47.0226 12.0391 46.8471 12.1735 46.7058 12.3467C46.5646 12.5199 46.4552 12.7227 46.3777 12.9551C46.3002 13.1829 46.2456 13.4313 46.2137 13.7002V15.0264C46.2683 15.3545 46.3618 15.6553 46.4939 15.9287C46.6261 16.2021 46.8129 16.4209 47.0545 16.585C47.3006 16.7445 47.615 16.8242 47.9978 16.8242C48.2941 16.8242 48.547 16.7604 48.7566 16.6328C48.9663 16.5052 49.1372 16.3298 49.2693 16.1064C49.406 15.8786 49.5063 15.6165 49.5701 15.3203C49.6339 15.0241 49.6658 14.7096 49.6658 14.377ZM57.7664 13.6934V14.9922H53.9383V13.6934H57.7664ZM54.4168 10.6035V18H52.7693V10.6035H54.4168ZM58.9558 10.6035V18H57.3084V10.6035H58.9558ZM62.8592 17.1934L64.8689 10.6035H66.6326L63.6658 19.1279C63.5974 19.3102 63.5086 19.5085 63.3992 19.7227C63.2898 19.9368 63.1463 20.1396 62.9685 20.3311C62.7954 20.527 62.5789 20.6842 62.3191 20.8027C62.0594 20.9258 61.7449 20.9873 61.3758 20.9873C61.2299 20.9873 61.0887 20.9736 60.9519 20.9463C60.8198 20.9235 60.6944 20.8984 60.576 20.8711L60.5691 19.6133C60.6147 19.6178 60.6694 19.6224 60.7332 19.627C60.8015 19.6315 60.8562 19.6338 60.8972 19.6338C61.1707 19.6338 61.3985 19.5996 61.5808 19.5312C61.7631 19.4674 61.9112 19.3626 62.0252 19.2168C62.1437 19.071 62.2439 18.875 62.326 18.6289L62.8592 17.1934ZM61.7244 10.6035L63.4812 16.1406L63.7752 17.877L62.6336 18.1709L59.9471 10.6035H61.7244ZM71.0076 10.6035V18H69.3533V10.6035H71.0076ZM73.4344 10.6035V11.9023H66.9676V10.6035H73.4344ZM75.7586 12.9551H77.9392C78.5773 12.9551 79.1196 13.0622 79.5662 13.2764C80.0128 13.4906 80.3523 13.7891 80.5847 14.1719C80.8217 14.5501 80.9402 14.9831 80.9402 15.4707C80.9402 15.8307 80.8741 16.1657 80.742 16.4756C80.6098 16.7809 80.4138 17.0475 80.1541 17.2754C79.8989 17.5033 79.5844 17.681 79.2107 17.8086C78.8416 17.9362 78.4178 18 77.9392 18H74.6648V10.6035H76.3191V16.6943H77.9392C78.2674 16.6943 78.5294 16.6374 78.7254 16.5234C78.9213 16.4095 79.0626 16.2614 79.1492 16.0791C79.2403 15.8968 79.2859 15.7031 79.2859 15.498C79.2859 15.2884 79.2403 15.0902 79.1492 14.9033C79.0626 14.7165 78.9213 14.5638 78.7254 14.4453C78.5294 14.3268 78.2674 14.2676 77.9392 14.2676H75.7586V12.9551ZM85.281 16.8242C85.5499 16.8242 85.7915 16.7718 86.0056 16.667C86.2244 16.5576 86.3999 16.4072 86.532 16.2158C86.6687 16.0244 86.7439 15.8034 86.7576 15.5527H88.3094C88.3002 16.0312 88.159 16.4665 87.8855 16.8584C87.6121 17.2503 87.2498 17.5625 86.7986 17.7949C86.3474 18.0228 85.8484 18.1367 85.3015 18.1367C84.7364 18.1367 84.2443 18.041 83.825 17.8496C83.4057 17.6536 83.0571 17.3848 82.7791 17.043C82.5011 16.7012 82.2915 16.307 82.1502 15.8604C82.0135 15.4137 81.9451 14.9352 81.9451 14.4248V14.1855C81.9451 13.6751 82.0135 13.1966 82.1502 12.75C82.2915 12.2988 82.5011 11.9023 82.7791 11.5605C83.0571 11.2188 83.4057 10.9521 83.825 10.7607C84.2443 10.5648 84.7342 10.4668 85.2947 10.4668C85.8872 10.4668 86.4067 10.5853 86.8533 10.8223C87.2999 11.0547 87.6508 11.3805 87.906 11.7998C88.1658 12.2145 88.3002 12.6976 88.3094 13.249H86.7576C86.7439 12.9756 86.6756 12.7295 86.5525 12.5107C86.434 12.2874 86.2654 12.1097 86.0467 11.9775C85.8325 11.8454 85.575 11.7793 85.2742 11.7793C84.9415 11.7793 84.6658 11.8477 84.4471 11.9844C84.2283 12.1165 84.0574 12.2988 83.9344 12.5312C83.8113 12.7591 83.7224 13.0166 83.6678 13.3037C83.6176 13.5863 83.5926 13.8802 83.5926 14.1855V14.4248C83.5926 14.7301 83.6176 15.0264 83.6678 15.3135C83.7179 15.6006 83.8045 15.8581 83.9275 16.0859C84.0551 16.3092 84.2283 16.4893 84.4471 16.626C84.6658 16.7581 84.9438 16.8242 85.281 16.8242ZM91.1326 14.3838H92.8416L90.743 18H89.0408L91.1326 14.3838ZM92.3357 10.6035H95.5076V18H93.867V11.9023H92.3357C92.0258 11.9023 91.7706 11.957 91.5701 12.0664C91.3696 12.1712 91.2215 12.3102 91.1258 12.4834C91.0301 12.652 90.9822 12.8252 90.9822 13.0029C90.9822 13.1807 91.0255 13.3516 91.1121 13.5156C91.2032 13.6797 91.3422 13.8141 91.5291 13.9189C91.7205 14.0238 91.9597 14.0762 92.2469 14.0762H94.4207V15.2793H92.2469C91.7911 15.2793 91.3832 15.2223 91.0232 15.1084C90.6632 14.9899 90.3579 14.8281 90.1072 14.623C89.8566 14.4134 89.6652 14.1696 89.533 13.8916C89.4008 13.609 89.3347 13.3014 89.3347 12.9688C89.3347 12.627 89.4031 12.3125 89.5398 12.0254C89.6765 11.7383 89.8725 11.4876 90.1277 11.2734C90.3875 11.0592 90.7019 10.8952 91.0711 10.7812C91.4448 10.6628 91.8663 10.6035 92.3357 10.6035ZM105.878 13.6934V14.9922H102.05V13.6934H105.878ZM102.528 10.6035V18H100.881V10.6035H102.528ZM107.067 10.6035V18H105.42V10.6035H107.067ZM112.994 16.5166V12.9893C112.994 12.7249 112.946 12.4971 112.85 12.3057C112.755 12.1143 112.609 11.9661 112.413 11.8613C112.221 11.7565 111.98 11.7041 111.688 11.7041C111.419 11.7041 111.187 11.7497 110.991 11.8408C110.795 11.932 110.642 12.055 110.533 12.21C110.424 12.3649 110.369 12.5404 110.369 12.7363H108.728C108.728 12.4447 108.799 12.1621 108.94 11.8887C109.081 11.6152 109.287 11.3714 109.555 11.1572C109.824 10.943 110.146 10.7744 110.519 10.6514C110.893 10.5283 111.312 10.4668 111.777 10.4668C112.333 10.4668 112.825 10.5602 113.254 10.7471C113.687 10.9339 114.026 11.2165 114.272 11.5947C114.523 11.9684 114.648 12.4378 114.648 13.0029V16.291C114.648 16.6283 114.671 16.9313 114.717 17.2002C114.767 17.4645 114.837 17.6947 114.928 17.8906V18H113.24C113.163 17.8223 113.101 17.5967 113.055 17.3232C113.014 17.0452 112.994 16.7764 112.994 16.5166ZM113.233 13.502L113.247 14.5205H112.064C111.759 14.5205 111.49 14.5501 111.258 14.6094C111.025 14.6641 110.831 14.7461 110.677 14.8555C110.522 14.9648 110.405 15.097 110.328 15.252C110.25 15.4069 110.212 15.5824 110.212 15.7783C110.212 15.9743 110.257 16.1543 110.348 16.3184C110.44 16.4779 110.572 16.6032 110.745 16.6943C110.923 16.7855 111.137 16.8311 111.387 16.8311C111.725 16.8311 112.019 16.7627 112.269 16.626C112.525 16.4847 112.725 16.3138 112.871 16.1133C113.017 15.9082 113.094 15.7145 113.103 15.5322L113.637 16.2637C113.582 16.4505 113.488 16.651 113.356 16.8652C113.224 17.0794 113.051 17.2845 112.837 17.4805C112.627 17.6719 112.374 17.8291 112.078 17.9521C111.786 18.0752 111.449 18.1367 111.066 18.1367C110.583 18.1367 110.152 18.041 109.774 17.8496C109.396 17.6536 109.1 17.3916 108.886 17.0635C108.671 16.7308 108.564 16.3548 108.564 15.9355C108.564 15.5436 108.637 15.1973 108.783 14.8965C108.933 14.5911 109.152 14.3359 109.439 14.1309C109.731 13.9258 110.086 13.7708 110.506 13.666C110.925 13.5566 111.403 13.502 111.941 13.502H113.233ZM17.4344 26.6035V27.916H14.2078V34H12.5603V26.6035H17.4344ZM23.0877 26.6035V27.916H19.4783V26.6035H23.0877ZM24.3797 26.6035V34H22.7322V26.6035H24.3797ZM19.075 26.6035H20.7019L20.5037 30.2607C20.4763 30.8031 20.4217 31.2816 20.3396 31.6963C20.2622 32.1064 20.1573 32.4596 20.0252 32.7559C19.893 33.0475 19.7312 33.2845 19.5398 33.4668C19.3484 33.6491 19.1251 33.7835 18.8699 33.8701C18.6147 33.9567 18.3276 34 18.0086 34H17.4959L17.489 32.6465L17.7488 32.626C17.9174 32.6123 18.0633 32.569 18.1863 32.4961C18.3094 32.4186 18.4142 32.3092 18.5008 32.168C18.5919 32.0267 18.6648 31.8444 18.7195 31.6211C18.7788 31.3978 18.8243 31.1335 18.8562 30.8281C18.8927 30.5228 18.92 30.1673 18.9383 29.7617L19.075 26.6035ZM30.2996 32.5166V28.9893C30.2996 28.7249 30.2517 28.4971 30.156 28.3057C30.0603 28.1143 29.9145 27.9661 29.7185 27.8613C29.5271 27.7565 29.2856 27.7041 28.9939 27.7041C28.725 27.7041 28.4926 27.7497 28.2967 27.8408C28.1007 27.932 27.948 28.055 27.8387 28.21C27.7293 28.3649 27.6746 28.5404 27.6746 28.7363H26.034C26.034 28.4447 26.1046 28.1621 26.2459 27.8887C26.3872 27.6152 26.5922 27.3714 26.8611 27.1572C27.13 26.943 27.4513 26.7744 27.825 26.6514C28.1987 26.5283 28.618 26.4668 29.0828 26.4668C29.6388 26.4668 30.131 26.5602 30.5594 26.7471C30.9923 26.9339 31.3318 27.2165 31.5779 27.5947C31.8286 27.9684 31.9539 28.4378 31.9539 29.0029V32.291C31.9539 32.6283 31.9767 32.9313 32.0222 33.2002C32.0724 33.4645 32.143 33.6947 32.2342 33.8906V34H30.5457C30.4682 33.8223 30.4067 33.5967 30.3611 33.3232C30.3201 33.0452 30.2996 32.7764 30.2996 32.5166ZM30.5388 29.502L30.5525 30.5205H29.3699C29.0646 30.5205 28.7957 30.5501 28.5633 30.6094C28.3308 30.6641 28.1372 30.7461 27.9822 30.8555C27.8273 30.9648 27.711 31.097 27.6336 31.252C27.5561 31.4069 27.5174 31.5824 27.5174 31.7783C27.5174 31.9743 27.5629 32.1543 27.6541 32.3184C27.7452 32.4779 27.8774 32.6032 28.0506 32.6943C28.2283 32.7855 28.4425 32.8311 28.6931 32.8311C29.0304 32.8311 29.3243 32.7627 29.575 32.626C29.8302 32.4847 30.0307 32.3138 30.1765 32.1133C30.3224 31.9082 30.3999 31.7145 30.409 31.5322L30.9422 32.2637C30.8875 32.4505 30.7941 32.651 30.6619 32.8652C30.5297 33.0794 30.3566 33.2845 30.1424 33.4805C29.9327 33.6719 29.6798 33.8291 29.3836 33.9521C29.0919 34.0752 28.7547 34.1367 28.3719 34.1367C27.8888 34.1367 27.4581 34.041 27.0799 33.8496C26.7016 33.6536 26.4054 33.3916 26.1912 33.0635C25.977 32.7308 25.8699 32.3548 25.8699 31.9355C25.8699 31.5436 25.9428 31.1973 26.0887 30.8965C26.239 30.5911 26.4578 30.3359 26.7449 30.1309C27.0366 29.9258 27.392 29.7708 27.8113 29.666C28.2306 29.5566 28.7091 29.502 29.2469 29.502H30.5388ZM37.2722 30.835H34.907L34.8933 29.6729H36.8347C37.1538 29.6729 37.4158 29.641 37.6209 29.5771C37.8305 29.5133 37.9855 29.4176 38.0857 29.29C38.186 29.1579 38.2361 28.9984 38.2361 28.8115C38.2361 28.6566 38.2065 28.5221 38.1472 28.4082C38.088 28.2897 37.9969 28.194 37.8738 28.1211C37.7553 28.0436 37.6049 27.9889 37.4226 27.957C37.2449 27.9206 37.0375 27.9023 36.8006 27.9023H35.4539V34H33.8064V26.6035H36.8006C37.2745 26.6035 37.7006 26.6445 38.0789 26.7266C38.4617 26.8086 38.7875 26.9339 39.0564 27.1025C39.3253 27.2712 39.5304 27.4854 39.6717 27.7451C39.8175 28.0003 39.8904 28.3011 39.8904 28.6475C39.8904 28.8753 39.8403 29.0895 39.74 29.29C39.6443 29.4906 39.5008 29.6683 39.3094 29.8232C39.118 29.9782 38.8832 30.1058 38.6053 30.2061C38.3273 30.3018 38.0082 30.361 37.6482 30.3838L37.2722 30.835ZM37.2722 34H34.4285L35.0847 32.7012H37.2722C37.5639 32.7012 37.8055 32.6647 37.9969 32.5918C38.1883 32.5189 38.3295 32.4141 38.4207 32.2773C38.5164 32.1361 38.5642 31.9697 38.5642 31.7783C38.5642 31.5824 38.5187 31.4137 38.4275 31.2725C38.3364 31.1312 38.1951 31.0241 38.0037 30.9512C37.8168 30.8737 37.573 30.835 37.2722 30.835H35.3924L35.406 29.6729H37.6414L38.1131 30.124C38.5825 30.1559 38.9721 30.2562 39.282 30.4248C39.5919 30.5934 39.8243 30.8053 39.9793 31.0605C40.1342 31.3158 40.2117 31.5938 40.2117 31.8945C40.2117 32.2409 40.1456 32.5462 40.0135 32.8105C39.8859 33.0749 39.6944 33.2959 39.4392 33.4736C39.1886 33.6468 38.881 33.779 38.5164 33.8701C38.1518 33.9567 37.7371 34 37.2722 34ZM46.6853 29.6934V30.9922H42.8572V29.6934H46.6853ZM43.3357 26.6035V34H41.6883V26.6035H43.3357ZM47.8748 26.6035V34H46.2273V26.6035H47.8748ZM51.7781 33.1934L53.7879 26.6035H55.5515L52.5847 35.1279C52.5164 35.3102 52.4275 35.5085 52.3181 35.7227C52.2088 35.9368 52.0652 36.1396 51.8875 36.3311C51.7143 36.527 51.4978 36.6842 51.2381 36.8027C50.9783 36.9258 50.6638 36.9873 50.2947 36.9873C50.1489 36.9873 50.0076 36.9736 49.8709 36.9463C49.7387 36.9235 49.6134 36.8984 49.4949 36.8711L49.4881 35.6133C49.5336 35.6178 49.5883 35.6224 49.6521 35.627C49.7205 35.6315 49.7752 35.6338 49.8162 35.6338C50.0896 35.6338 50.3175 35.5996 50.4998 35.5312C50.6821 35.4674 50.8302 35.3626 50.9441 35.2168C51.0626 35.071 51.1629 34.875 51.2449 34.6289L51.7781 33.1934ZM50.6433 26.6035L52.4002 32.1406L52.6941 33.877L51.5525 34.1709L48.866 26.6035H50.6433ZM60.8494 29.5908V30.9033H56.8846V29.5908H60.8494ZM58.2928 26.6035V34H56.6453V26.6035H58.2928ZM59.6326 30.3838V30.2266C59.6326 29.6934 59.7101 29.1989 59.865 28.7432C60.02 28.2829 60.2456 27.8841 60.5418 27.5469C60.838 27.2051 61.198 26.9408 61.6219 26.7539C62.0457 26.5625 62.5265 26.4668 63.0642 26.4668C63.6111 26.4668 64.0965 26.5625 64.5203 26.7539C64.9487 26.9408 65.311 27.2051 65.6072 27.5469C65.9034 27.8841 66.129 28.2829 66.284 28.7432C66.4389 29.1989 66.5164 29.6934 66.5164 30.2266V30.3838C66.5164 30.917 66.4389 31.4115 66.284 31.8672C66.129 32.3229 65.9034 32.7217 65.6072 33.0635C65.3155 33.4007 64.9555 33.665 64.5271 33.8564C64.1033 34.0433 63.6202 34.1367 63.0779 34.1367C62.5356 34.1367 62.0525 34.0433 61.6287 33.8564C61.2049 33.665 60.8426 33.4007 60.5418 33.0635C60.2456 32.7217 60.02 32.3229 59.865 31.8672C59.7101 31.4115 59.6326 30.917 59.6326 30.3838ZM61.2869 30.2266V30.3838C61.2869 30.7165 61.3211 31.0309 61.3894 31.3271C61.4578 31.6234 61.5649 31.8831 61.7107 32.1064C61.8566 32.3298 62.0434 32.5052 62.2713 32.6328C62.4991 32.7604 62.768 32.8242 63.0779 32.8242C63.3878 32.8242 63.6544 32.7604 63.8777 32.6328C64.1056 32.5052 64.2924 32.3298 64.4383 32.1064C64.5841 31.8831 64.6912 31.6234 64.7596 31.3271C64.8325 31.0309 64.8689 30.7165 64.8689 30.3838V30.2266C64.8689 29.8984 64.8325 29.5885 64.7596 29.2969C64.6912 29.0007 64.5841 28.7386 64.4383 28.5107C64.2924 28.2829 64.1056 28.1051 63.8777 27.9775C63.6499 27.8454 63.3787 27.7793 63.0642 27.7793C62.7589 27.7793 62.4923 27.8454 62.2644 27.9775C62.0411 28.1051 61.8566 28.2829 61.7107 28.5107C61.5649 28.7386 61.4578 29.0007 61.3894 29.2969C61.3211 29.5885 61.2869 29.8984 61.2869 30.2266ZM74.3914 32.8242C74.6603 32.8242 74.9018 32.7718 75.116 32.667C75.3347 32.5576 75.5102 32.4072 75.6424 32.2158C75.7791 32.0244 75.8543 31.8034 75.868 31.5527H77.4197C77.4106 32.0312 77.2693 32.4665 76.9959 32.8584C76.7224 33.2503 76.3601 33.5625 75.909 33.7949C75.4578 34.0228 74.9588 34.1367 74.4119 34.1367C73.8468 34.1367 73.3546 34.041 72.9353 33.8496C72.5161 33.6536 72.1674 33.3848 71.8894 33.043C71.6114 32.7012 71.4018 32.307 71.2605 31.8604C71.1238 31.4137 71.0555 30.9352 71.0555 30.4248V30.1855C71.0555 29.6751 71.1238 29.1966 71.2605 28.75C71.4018 28.2988 71.6114 27.9023 71.8894 27.5605C72.1674 27.2188 72.5161 26.9521 72.9353 26.7607C73.3546 26.5648 73.8445 26.4668 74.4051 26.4668C74.9975 26.4668 75.517 26.5853 75.9637 26.8223C76.4103 27.0547 76.7612 27.3805 77.0164 27.7998C77.2762 28.2145 77.4106 28.6976 77.4197 29.249H75.868C75.8543 28.9756 75.7859 28.7295 75.6629 28.5107C75.5444 28.2874 75.3758 28.1097 75.157 27.9775C74.9428 27.8454 74.6853 27.7793 74.3846 27.7793C74.0519 27.7793 73.7762 27.8477 73.5574 27.9844C73.3387 28.1165 73.1678 28.2988 73.0447 28.5312C72.9217 28.7591 72.8328 29.0166 72.7781 29.3037C72.728 29.5863 72.7029 29.8802 72.7029 30.1855V30.4248C72.7029 30.7301 72.728 31.0264 72.7781 31.3135C72.8282 31.6006 72.9148 31.8581 73.0379 32.0859C73.1655 32.3092 73.3387 32.4893 73.5574 32.626C73.7762 32.7581 74.0541 32.8242 74.3914 32.8242ZM82.116 26.6035V34H80.4617V26.6035H82.116ZM84.5428 26.6035V27.9023H78.076V26.6035H84.5428ZM87.2976 28.0254V36.8438H85.6502V26.6035H87.1678L87.2976 28.0254ZM92.117 30.2334V30.377C92.117 30.9147 92.0532 31.4137 91.9256 31.874C91.8025 32.3298 91.618 32.7285 91.3719 33.0703C91.1303 33.4076 90.8318 33.6696 90.4763 33.8564C90.1209 34.0433 89.7107 34.1367 89.2459 34.1367C88.7856 34.1367 88.3823 34.0524 88.0359 33.8838C87.6941 33.7106 87.4047 33.4668 87.1678 33.1523C86.9308 32.8379 86.7394 32.4688 86.5935 32.0449C86.4523 31.6165 86.352 31.1471 86.2928 30.6367V30.083C86.352 29.5407 86.4523 29.0485 86.5935 28.6064C86.7394 28.1644 86.9308 27.7839 87.1678 27.4648C87.4047 27.1458 87.6941 26.8997 88.0359 26.7266C88.3777 26.5534 88.7765 26.4668 89.2322 26.4668C89.6971 26.4668 90.1095 26.5579 90.4695 26.7402C90.8295 26.918 91.1326 27.1732 91.3787 27.5059C91.6248 27.834 91.8094 28.2305 91.9324 28.6953C92.0555 29.1556 92.117 29.6683 92.117 30.2334ZM90.4695 30.377V30.2334C90.4695 29.8916 90.4376 29.5749 90.3738 29.2832C90.31 28.987 90.2097 28.7272 90.073 28.5039C89.9363 28.2806 89.7609 28.1074 89.5467 27.9844C89.337 27.8568 89.0841 27.793 88.7879 27.793C88.4962 27.793 88.2456 27.8431 88.0359 27.9434C87.8263 28.0391 87.6508 28.1735 87.5096 28.3467C87.3683 28.5199 87.2589 28.7227 87.1814 28.9551C87.104 29.1829 87.0493 29.4313 87.0174 29.7002V31.0264C87.0721 31.3545 87.1655 31.6553 87.2976 31.9287C87.4298 32.2021 87.6166 32.4209 87.8582 32.585C88.1043 32.7445 88.4187 32.8242 88.8015 32.8242C89.0978 32.8242 89.3507 32.7604 89.5603 32.6328C89.77 32.5052 89.9409 32.3298 90.073 32.1064C90.2097 31.8786 90.31 31.6165 90.3738 31.3203C90.4376 31.0241 90.4695 30.7096 90.4695 30.377ZM97.6883 32.5166V28.9893C97.6883 28.7249 97.6404 28.4971 97.5447 28.3057C97.449 28.1143 97.3032 27.9661 97.1072 27.8613C96.9158 27.7565 96.6743 27.7041 96.3826 27.7041C96.1137 27.7041 95.8813 27.7497 95.6853 27.8408C95.4894 27.932 95.3367 28.055 95.2273 28.21C95.118 28.3649 95.0633 28.5404 95.0633 28.7363H93.4226C93.4226 28.4447 93.4933 28.1621 93.6346 27.8887C93.7758 27.6152 93.9809 27.3714 94.2498 27.1572C94.5187 26.943 94.84 26.7744 95.2137 26.6514C95.5874 26.5283 96.0066 26.4668 96.4715 26.4668C97.0275 26.4668 97.5196 26.5602 97.948 26.7471C98.381 26.9339 98.7205 27.2165 98.9666 27.5947C99.2172 27.9684 99.3426 28.4378 99.3426 29.0029V32.291C99.3426 32.6283 99.3653 32.9313 99.4109 33.2002C99.461 33.4645 99.5317 33.6947 99.6228 33.8906V34H97.9344C97.8569 33.8223 97.7954 33.5967 97.7498 33.3232C97.7088 33.0452 97.6883 32.7764 97.6883 32.5166ZM97.9275 29.502L97.9412 30.5205H96.7586C96.4532 30.5205 96.1844 30.5501 95.9519 30.6094C95.7195 30.6641 95.5258 30.7461 95.3709 30.8555C95.2159 30.9648 95.0997 31.097 95.0222 31.252C94.9448 31.4069 94.906 31.5824 94.906 31.7783C94.906 31.9743 94.9516 32.1543 95.0428 32.3184C95.1339 32.4779 95.2661 32.6032 95.4392 32.6943C95.617 32.7855 95.8312 32.8311 96.0818 32.8311C96.4191 32.8311 96.713 32.7627 96.9637 32.626C97.2189 32.4847 97.4194 32.3138 97.5652 32.1133C97.711 31.9082 97.7885 31.7145 97.7976 31.5322L98.3308 32.2637C98.2762 32.4505 98.1827 32.651 98.0506 32.8652C97.9184 33.0794 97.7452 33.2845 97.531 33.4805C97.3214 33.6719 97.0685 33.8291 96.7722 33.9521C96.4806 34.0752 96.1433 34.1367 95.7605 34.1367C95.2775 34.1367 94.8468 34.041 94.4685 33.8496C94.0903 33.6536 93.7941 33.3916 93.5799 33.0635C93.3657 32.7308 93.2586 32.3548 93.2586 31.9355C93.2586 31.5436 93.3315 31.1973 93.4773 30.8965C93.6277 30.5911 93.8465 30.3359 94.1336 30.1309C94.4252 29.9258 94.7807 29.7708 95.2 29.666C95.6193 29.5566 96.0978 29.502 96.6355 29.502H97.9275ZM106.117 29.6934V30.9922H102.289V29.6934H106.117ZM102.767 26.6035V34H101.12V26.6035H102.767ZM107.306 26.6035V34H105.659V26.6035H107.306ZM110.765 31.5938L113.671 26.6035H115.318V34H113.671V29.0029L110.765 34H109.118V26.6035H110.765V31.5938ZM117.116 34V26.6035H118.763V32.6875H121.662V26.6035H123.316V34H117.116ZM124.321 32.6943L124.191 36.1943H122.68V34H121.792V32.6943H124.321ZM127.63 33.1934L129.639 26.6035H131.403L128.436 35.1279C128.368 35.3102 128.279 35.5085 128.17 35.7227C128.06 35.9368 127.917 36.1396 127.739 36.3311C127.566 36.527 127.349 36.6842 127.09 36.8027C126.83 36.9258 126.515 36.9873 126.146 36.9873C126 36.9873 125.859 36.9736 125.722 36.9463C125.59 36.9235 125.465 36.8984 125.346 36.8711L125.34 35.6133C125.385 35.6178 125.44 35.6224 125.504 35.627C125.572 35.6315 125.627 35.6338 125.668 35.6338C125.941 35.6338 126.169 35.5996 126.351 35.5312C126.534 35.4674 126.682 35.3626 126.796 35.2168C126.914 35.071 127.014 34.875 127.096 34.6289L127.63 33.1934ZM126.495 26.6035L128.252 32.1406L128.546 33.877L127.404 34.1709L124.718 26.6035H126.495Z" fill="#885923"/>
<path d="M204.053 21.7071C204.443 21.3166 204.443 20.6834 204.053 20.2929L197.689 13.9289C197.298 13.5384 196.665 13.5384 196.274 13.9289C195.884 14.3195 195.884 14.9526 196.274 15.3431L201.931 21L196.274 26.6569C195.884 27.0474 195.884 27.6805 196.274 28.0711C196.665 28.4616 197.298 28.4616 197.689 28.0711L204.053 21.7071ZM143.345 21V22H203.345V21V20H143.345V21Z" fill="#A6651A"/>
</svg>
